# xmcd
#
# Track frame offsets: 
#        182
#        17032
#        36385
#        53785
#
# Disc length: 898 seconds
#
# Revision: 0
# Processed by: cddbd v1.5.2PL0 Copyright (c) Steve Scherf et al.
# Submitted via: ExactAudioCopy v1.1
#
DISCID=2d038004
DTITLE=Bellamy Brothers - Merry Christmas And A Happy New Year
DYEAR=1996
DGENRE=X-Mas
TTITLE0=Merry Christmas And A Happy New Year
TTITLE1=Our Love Is Like CHristmas
TTITLE2=Light Up The Candles
TTITLE3=A Cowboy's Holiday (Jingle Bells)
EXTD=
EXTT0=
EXTT1=
EXTT2=
EXTT3=
PLAYORDER=
